<svg width="19" height="19" viewBox="0 0 19 19" fill="none" xmlns="http://www.w3.org/2000/svg">
<path d="M18.7613 2.70128C18.1836 1.08584 16.6543 0.00556637 14.938 0C13.2133 0.00198799 11.6764 1.08902 11.1015 2.7144H3.39483C1.52097 2.71639 0.00238708 4.23442 0 6.1071V15.6069C0.00238708 17.48 1.52097 18.9976 3.39483 18.9996H12.9006C14.7749 18.9972 16.2934 17.4796 16.2954 15.6069V7.90543C18.4148 7.14841 19.5184 4.81849 18.7613 2.70128ZM14.938 15.6069C14.938 16.7313 14.0261 17.6426 12.901 17.6426H3.39483C2.26972 17.6426 1.35785 16.7313 1.35785 15.6069V6.1071C1.35785 4.98269 2.26972 4.0714 3.39483 4.0714H10.8636C10.866 6.31902 12.6885 8.14042 14.9376 8.1428L14.938 15.6069ZM14.938 6.7858C13.4381 6.7858 12.2219 5.57074 12.2219 4.0714C12.2219 2.57206 13.4377 1.357 14.938 1.357C16.4383 1.357 17.6541 2.57206 17.6541 4.0714C17.6541 5.57074 16.4379 6.7858 14.938 6.7858Z" fill="#656D82"/>
</svg>
