<svg width="19" height="20" viewBox="0 0 19 20" fill="none" xmlns="http://www.w3.org/2000/svg">
<g clip-path="url(#clip0_2140_5378)">
<path d="M5.11134 20C4.74476 20 4.44482 19.6932 4.44482 19.3183V4.32041C4.44482 3.94546 4.74476 3.63869 5.11134 3.63869C5.47793 3.63869 5.77786 3.94546 5.77786 4.32041V19.3183C5.77786 19.6932 5.47793 20 5.11134 20Z" fill="#656D82"/>
<path d="M16.8213 20H2.17869C0.974786 20 0 18.8794 0 17.4989V2.50107C0 1.12058 0.974786 0 2.17869 0H16.8213C18.021 0 19 1.12058 19 2.50107V17.4989C18.9958 18.8794 18.021 20 16.8213 20ZM2.17869 1.36344C1.63298 1.36344 1.18724 1.87473 1.18724 2.50107V17.4989C1.18724 18.1253 1.63298 18.6366 2.17869 18.6366H16.8213C17.367 18.6366 17.8128 18.1253 17.8128 17.4989V2.50107C17.8128 1.87473 17.367 1.36344 16.8213 1.36344H2.17869Z" fill="#656D82"/>
<path d="M18.121 4.9297H0.583205C0.262442 4.9297 0 4.62292 0 4.24798C0 3.87303 0.262442 3.56625 0.583205 3.56625H18.121C18.4418 3.56625 18.7042 3.87303 18.7042 4.24798C18.7042 4.62292 18.4418 4.9297 18.121 4.9297Z" fill="#656D82"/>
</g>
<defs>
<clipPath id="clip0_2140_5378">
<rect width="19" height="20" fill="white"/>
</clipPath>
</defs>
</svg>
