<svg width="19" height="23" viewBox="0 0 19 23" fill="none" xmlns="http://www.w3.org/2000/svg">
<path d="M18.7874 0.661333C18.5147 0.240366 18.0269 -0.0126712 17.5126 0.000489491C16.9807 0.0141766 16.5106 0.311609 16.2229 0.815928L11.4748 9.13947C11.4181 9.13702 11.3613 9.13561 11.304 9.13561C10.118 9.13561 8.96635 9.68749 8.37029 10.5415C7.94461 11.151 7.25012 11.8053 6.42114 12.4365C6.4043 12.4476 6.38839 12.4598 6.37322 12.473C4.53212 13.8643 2.04888 15.136 0.370381 15.5556C0.164662 15.6072 -0.028662 15.796 0.00352776 16.1017C0.0518125 16.5614 0.676924 17.8499 1.96933 19.166L1.97155 19.1683C2.14785 19.3476 2.33618 19.5275 2.53746 19.7058C3.35293 20.4282 4.50918 21.2386 6.06631 21.8785C6.10331 21.8992 6.14235 21.9149 6.18268 21.9252C7.54723 22.4715 9.2124 22.8856 11.2195 22.9993C11.2291 22.9998 11.2385 23 11.2479 23C11.449 23 11.6302 22.8798 11.6977 22.698C11.7787 22.4797 13.3214 18.3039 14.0103 14.7658C14.0109 14.7624 14.0116 14.7591 14.0122 14.7556C14.1826 13.8786 14.3006 13.0407 14.3304 12.3126C14.3576 11.653 14.2336 11.0659 13.9685 10.5789L18.7866 2.13411C19.0708 1.63628 19.0712 1.0995 18.7874 0.661333ZM11.304 10.0404C11.9199 10.0404 12.4597 10.2385 12.8241 10.598C12.8961 10.6689 12.961 10.7458 13.0189 10.8281C13.0223 10.8328 13.0256 10.8376 13.0291 10.8423C13.2844 11.212 13.4015 11.693 13.3773 12.2773C13.3567 12.779 13.2901 13.3416 13.1915 13.9372L8.92232 11.3626C9.00983 11.2548 9.09123 11.1474 9.1656 11.0411C9.58999 10.4333 10.4293 10.0404 11.304 10.0404ZM10.9159 22.0719C9.44791 21.9587 8.18547 21.6741 7.10786 21.2986C7.79735 20.5107 8.63521 19.4222 9.53338 17.8038C9.65603 17.5827 9.56649 17.3091 9.33339 17.1928C9.10029 17.0763 8.81188 17.1614 8.68923 17.3823C7.74518 19.0835 6.87309 20.1703 6.18249 20.9359C4.89508 20.3726 3.92458 19.6905 3.22621 19.0778C3.19087 19.0467 3.15646 19.0158 3.12205 18.9849C4.40132 18.3674 5.75718 17.6374 7.18296 16.514C7.38554 16.3544 7.41329 16.0692 7.24494 15.8769C7.07659 15.6849 6.77597 15.6584 6.57339 15.8181C5.12041 16.9627 3.77936 17.6617 2.43127 18.3021C1.65187 17.4549 1.23803 16.7074 1.06043 16.3059C2.73393 15.7949 4.94707 14.6549 6.71492 13.3651L8.08243 14.2283C8.16364 14.2797 8.25559 14.3041 8.34624 14.3041C8.50053 14.3041 8.65186 14.2332 8.7438 14.1023C8.88976 13.8944 8.8302 13.6134 8.61097 13.4751L7.48877 12.7667C7.77626 12.5302 8.04469 12.2914 8.28852 12.0526L13.011 14.9005C12.9305 15.2889 12.84 15.6846 12.7431 16.0811L11.6623 15.3987C11.4431 15.2603 11.1471 15.3166 11.0012 15.5245C10.8552 15.7325 10.9146 16.0134 11.1338 16.1519L12.5032 17.0166C11.9128 19.2229 11.1941 21.293 10.9159 22.0719ZM17.9479 1.70331L13.3255 9.80488C13.0717 9.59817 12.7775 9.43638 12.4541 9.32372L17.0619 1.24655C17.1489 1.09406 17.3022 0.911036 17.5386 0.904895C17.7111 0.901561 17.8811 0.990703 17.9745 1.13494C18.0781 1.2948 18.0689 1.49134 17.9479 1.70331Z" fill="#4772D6"/>
</svg>
