<svg width="18" height="20" viewBox="0 0 18 20" fill="none" xmlns="http://www.w3.org/2000/svg">
<path d="M17.8163 4.18086L13.5374 0.167969C13.4229 0.0605469 13.2683 0 13.1075 0H2.28958C1.02718 0 0 0.980859 0 2.18633V17.8137C0 19.0191 1.02718 20 2.28958 20H15.7104C16.9728 20 18 19.0191 18 17.8137V4.59883C18 4.4418 17.9337 4.29102 17.8163 4.18086ZM13.7211 1.98281L15.8859 4.01328H13.9162C13.8086 4.01328 13.7211 3.92969 13.7211 3.82695V1.98281ZM15.7104 18.8281H2.28958C1.70379 18.8281 1.22722 18.373 1.22722 17.8137V2.18633C1.22722 1.62695 1.70379 1.17188 2.28958 1.17188H12.4939V3.82656C12.4939 4.57539 13.132 5.18477 13.9162 5.18477H16.7728V17.8137C16.7728 18.373 16.2962 18.8281 15.7104 18.8281Z" fill="#4772D6"/>
<path d="M13.2595 9.29688H4.6097C4.27058 9.29688 3.99609 9.55898 3.99609 9.88281C3.99609 10.2066 4.27058 10.4688 4.6097 10.4688H13.2595C13.5987 10.4688 13.8731 10.2066 13.8731 9.88281C13.8731 9.55898 13.5987 9.29688 13.2595 9.29688Z" fill="#4772D6"/>
<path d="M4.6097 12.8125H11.6625C12.0016 12.8125 12.2761 12.5504 12.2761 12.2266C12.2761 11.9027 12.0016 11.6406 11.6625 11.6406H4.6097C4.27058 11.6406 3.99609 11.9027 3.99609 12.2266C3.99609 12.5504 4.27099 12.8125 4.6097 12.8125Z" fill="#4772D6"/>
<path d="M12.5138 13.9844H4.6097C4.27058 13.9844 3.99609 14.2465 3.99609 14.5703C3.99609 14.8941 4.27058 15.1562 4.6097 15.1562H12.5134C12.8521 15.1562 13.127 14.8941 13.127 14.5703C13.127 14.2465 12.8525 13.9844 12.5138 13.9844Z" fill="#4772D6"/>
</svg>
